<svg xmlns="http://www.w3.org/2000/svg" viewBox="-4425 -3065 54 56.082">
  <defs>
    <style>
      .cls-1 {
        fill: #fff;
      }
    </style>
  </defs>
  <g id="_149087" data-name="149087" transform="translate(-4425.982 -3065)">
    <path id="Path_332" data-name="Path 332" class="cls-1" d="M29.865,20.412H23.512V14.059a1.059,1.059,0,1,0-2.118,0v6.353H15.042a1.059,1.059,0,1,0,0,2.118h6.353v6.353a1.059,1.059,0,1,0,2.118,0V22.529h6.353a1.059,1.059,0,1,0,0-2.118Z" transform="translate(0.765 0.765)"/>
    <path id="Path_333" data-name="Path 333" class="cls-1" d="M54.688,54.289,38.955,37.927a22.253,22.253,0,1,0-1.565,1.427l15.771,16.4a1.059,1.059,0,1,0,1.527-1.468ZM3.1,22.235A20.118,20.118,0,1,1,23.218,42.353,20.14,20.14,0,0,1,3.1,22.235Z" transform="translate(0)"/>
  </g>
</svg>
