<svg xmlns="http://www.w3.org/2000/svg" viewBox="-4090 -3063 54 54">
  <defs>
    <style>
      .cls-1 {
        fill: #fff;
      }

      .cls-2, .cls-4 {
        fill: none;
      }

      .cls-2 {
        stroke: #fff;
        stroke-width: 2px;
      }

      .cls-3 {
        stroke: none;
      }
    </style>
  </defs>
  <g id="Symbol_18_4" data-name="Symbol 18 – 4" transform="translate(-4912 -3459)">
    <g id="_10194" data-name="10194" transform="translate(835 409)">
      <g id="Group_309" data-name="Group 309">
        <path id="Path_339" data-name="Path 339" class="cls-1" d="M27.927,13.643l-.2-.3L23.994,9.608a.933.933,0,0,0-1.32,1.32l2.139,2.139h-9.88V3.186l2.139,2.139a.933.933,0,1,0,1.32-1.32L14.659.273,14.65.267,14.357.073,14,0h0l-.353.073L13.35.267l-.011.006L9.606,4.006a.933.933,0,0,0,1.32,1.32l2.141-2.139v9.88H3.186l2.139-2.139a.933.933,0,0,0-1.32-1.32L.273,13.341l-.006.009-.194.293L0,14v0l.073.353.194.291.006.011,3.733,3.733a.933.933,0,0,0,1.32-1.32L3.186,14.933h9.88v9.88l-2.139-2.139a.933.933,0,1,0-1.32,1.32l3.733,3.733.3.2L14,28h0l.357-.073.3-.2,3.733-3.733a.933.933,0,0,0-1.32-1.32l-2.139,2.139v-9.88h9.88l-2.139,2.139a.933.933,0,1,0,1.32,1.32l3.733-3.733.2-.3L28,14v0Z"/>
      </g>
    </g>
    <g id="Ellipse_15" data-name="Ellipse 15" class="cls-2" transform="translate(822 396)">
      <circle class="cls-3" cx="27" cy="27" r="27"/>
      <circle class="cls-4" cx="27" cy="27" r="26"/>
    </g>
  </g>
</svg>
