<svg xmlns="http://www.w3.org/2000/svg" viewBox="5898 -3806 35.49 32">
  <defs>
    <style>
      .cls-1 {
        fill: #2d3039;
      }

      .cls-2 {
        fill: #e74c3d;
      }

      .cls-3 {
        fill: #ecf0f1;
      }

      .cls-4 {
        fill: #d1d4d2;
      }

      .cls-5 {
        fill: #c03b2b;
      }

      .cls-6 {
        fill: #556180;
      }

      .cls-7 {
        fill: #fff;
      }
    </style>
  </defs>
  <g id="_138304" data-name="138304" transform="translate(5898 -3808.9)">
    <path id="XMLID_117_" class="cls-1" d="M2.406,26.967H1.33A1.33,1.33,0,0,1,0,25.637V22.282a1.33,1.33,0,0,1,1.33-1.33H2.406Z" transform="translate(0 -7.194)"/>
    <path id="XMLID_116_" class="cls-2" d="M13.675,27.93l-8.062-.49a1.681,1.681,0,0,1-1.562-1.677v-6.7a1.461,1.461,0,0,1,1.357-1.457l8.267-.5V27.93Z" transform="translate(-1.614 -5.66)"/>
    <path id="XMLID_115_" class="cls-3" d="M33.252,30.072l-11.809-5.9a2.517,2.517,0,0,1-1.391-2.25V11.746a2.516,2.516,0,0,1,1.328-2.218L33.189,3.2a2.516,2.516,0,0,1,3.7,2.217v22.4a2.516,2.516,0,0,1-3.641,2.251" transform="translate(-7.991)"/>
    <path id="XMLID_114_" class="cls-2" d="M48.6,20.952H48v6.015h.6a2.413,2.413,0,0,0,2.406-2.406v-1.2A2.413,2.413,0,0,0,48.6,20.952" transform="translate(-19.129 -7.194)"/>
    <path id="XMLID_113_" class="cls-4" d="M55.6,27.373a.6.6,0,0,1-.488-.952,5.628,5.628,0,0,0,1.09-3.243A5.858,5.858,0,0,0,55.111,19.9a.6.6,0,0,1,.983-.693,7.046,7.046,0,0,1,1.313,3.94,6.85,6.85,0,0,1-1.316,3.975.6.6,0,0,1-.49.251" transform="translate(-21.919 -6.397)"/>
    <path id="XMLID_112_" class="cls-5" d="M8.052,34.376v2.151h1.8a.6.6,0,1,1,0,1.2h-1.8v1.2h1.8a.6.6,0,0,1,0,1.2h-1.8v1.2h1.8a.6.6,0,1,1,0,1.2h-1.8v1.2h1.8a.6.6,0,0,1,0,1.2h-1.8v.391a2.105,2.105,0,1,0,4.21,0v-10.7Z" transform="translate(-3.209 -12.544)"/>
    <path id="XMLID_111_" class="cls-2" d="M10.458,50.553a.6.6,0,0,0-.6-.6h-1.8v1.2h1.8a.6.6,0,0,0,.6-.6" transform="translate(-3.209 -18.751)"/>
    <path id="XMLID_110_" class="cls-2" d="M10.458,46.553a.6.6,0,0,0-.6-.6h-1.8v1.2h1.8a.6.6,0,0,0,.6-.6" transform="translate(-3.209 -17.157)"/>
    <path id="XMLID_109_" class="cls-2" d="M10.458,42.553a.6.6,0,0,0-.6-.6h-1.8v1.2h1.8a.6.6,0,0,0,.6-.6" transform="translate(-3.209 -15.563)"/>
    <path id="XMLID_108_" class="cls-2" d="M10.458,38.553a.6.6,0,0,0-.6-.6h-1.8v1.2h1.8a.6.6,0,0,0,.6-.6" transform="translate(-3.209 -13.969)"/>
    <path id="XMLID_107_" class="cls-6" d="M41.108,3.2,40,3.8V29.487l1.171.585a2.515,2.515,0,0,0,3.641-2.25V5.42a2.516,2.516,0,0,0-3.7-2.218" transform="translate(-15.941 0)"/>
    <path id="XMLID_106_" class="cls-7" d="M27.749,14.287a.6.6,0,0,0-.806-.272l-2.677,1.324A2.4,2.4,0,0,0,23,17.453v1.311a.6.6,0,0,0,1.2,0V17.453a1.186,1.186,0,0,1,.614-1.045l2.66-1.315a.6.6,0,0,0,.272-.806" transform="translate(-9.166 -4.404)"/>
    <path id="XMLID_105_" class="cls-7" d="M23.6,23.952a.6.6,0,0,0-.6.6v1.2a.6.6,0,1,0,1.2,0v-1.2a.6.6,0,0,0-.6-.6" transform="translate(-9.166 -8.39)"/>
  </g>
</svg>
